<?xml version="1.0" encoding="UTF-8"?>
<svg width="87px" height="87px" viewBox="0 0 87 87" version="1.1" xmlns="http://www.w3.org/2000/svg" xmlns:xlink="http://www.w3.org/1999/xlink">
    <!-- Generator: Sketch 48.1 (47250) - http://www.bohemiancoding.com/sketch -->
    <title>Group 22</title>
    <desc>Created with Sketch.</desc>
    <defs></defs>
    <g id="Page-1" stroke="none" stroke-width="1" fill="none" fill-rule="evenodd">
        <g transform="translate(0.000000, -1.000000)" id="Group-3">
            <g transform="translate(0.000000, 0.321100)">
                <g id="Group-22">
                    <path d="M43.1608,87 C66.9328,87 86.3218,67.612 86.3218,43.84 C86.3218,20.068 66.9328,0.679 43.1608,0.679 C19.3888,0.679 -0.0002,20.068 -0.0002,43.84 C-0.0002,67.612 19.3888,87 43.1608,87" id="Fill-1" fill="#FFCB00"></path>
                    <path d="M22.2055,70.1884 C24.2315,71.0114 27.9185,71.1934 29.7395,70.0904 C34.3965,67.2704 39.1715,65.9424 44.2795,65.5494 C49.3885,65.9424 54.1625,67.2704 58.8195,70.0904 C60.6415,71.1934 64.3285,71.0114 66.3545,70.1884 C80.5495,64.4174 73.8395,46.4834 48.6915,45.1784 C46.8965,45.0854 45.5255,44.9694 44.2795,44.8914 C43.0335,44.9694 41.6635,45.0854 39.8685,45.1784 C14.7205,46.4834 8.0095,64.4174 22.2055,70.1884" id="Fill-4" fill="#FF6930"></path>
                    <path d="M66.5248,25.0773 C60.7718,29.4203 59.5348,30.3573 56.6268,35.9083 C62.8338,35.2093 66.7898,34.5303 72.6758,39.2373 C66.4358,37.5553 64.2228,37.4033 57.8688,38.7473 C43.8188,41.7203 58.8538,26.3753 66.5248,25.0773" id="Fill-6" fill="#1F191A"></path>
                    <path d="M22.0958,25.3365 C28.5378,29.6795 29.9218,30.6165 33.1788,36.1675 C26.2288,35.4685 21.7988,34.7895 15.2078,39.4965 C22.1958,37.8155 24.6728,37.6625 31.7878,39.0065 C47.5208,41.9805 30.6858,26.6345 22.0958,25.3365" id="Fill-8" fill="#1F191A"></path>
                    <path d="M66.8709,42.7996 C77.5109,41.4666 78.3709,49.6146 74.2169,50.8946 C70.9659,51.8966 70.0759,45.8246 66.8709,42.7996" id="Fill-10" fill="#C6F5F5"></path>
                    <path d="M75.4172,36.5796 C86.0562,35.2466 86.9172,43.3946 82.7632,44.6746 C79.5122,45.6766 78.6212,39.6056 75.4172,36.5796" id="Fill-12" fill="#C6F5F5"></path>
                    <path d="M21.8867,41.5063 C11.2467,40.1733 10.3867,48.3213 14.5407,49.6013 C17.7917,50.6033 18.6827,44.5323 21.8867,41.5063" id="Fill-14" fill="#C6F5F5"></path>
                    <path d="M10.398,40.4631 C-0.242,39.1301 -1.102,47.2781 3.052,48.5581 C6.303,49.5601 7.193,43.4891 10.398,40.4631" id="Fill-16" fill="#C6F5F5"></path>
                </g>
            </g>
        </g>
    </g>
</svg>