<?xml version="1.0" encoding="UTF-8"?>
<svg width="87px" height="87px" viewBox="0 0 87 87" version="1.1" xmlns="http://www.w3.org/2000/svg" xmlns:xlink="http://www.w3.org/1999/xlink">
    <!-- Generator: Sketch 48.1 (47250) - http://www.bohemiancoding.com/sketch -->
    <title>Group 21</title>
    <desc>Created with Sketch.</desc>
    <defs>
        <polygon id="path-1" points="0.0003 0.679 86.321 0.679 86.321 87 0.0003 87"></polygon>
    </defs>
    <g id="Page-1" stroke="none" stroke-width="1" fill="none" fill-rule="evenodd">
        <g id="Group-20" transform="translate(-115.000000, -41.000000)">
            <g id="Page-1" transform="translate(115.000000, 40.000000)">
                <g id="Group-21">
                    <g id="Group-3" transform="translate(0.000000, 0.321100)">
                        <mask id="mask-2" fill="white">
                            <use xlink:href="#path-1"></use>
                        </mask>
                        <g id="Clip-2"></g>
                        <path d="M43.1603,87 C66.9323,87 86.3213,67.611 86.3213,43.839 C86.3213,20.067 66.9323,0.679 43.1603,0.679 C19.3883,0.679 0.0003,20.067 0.0003,43.839 C0.0003,67.611 19.3883,87 43.1603,87" id="Fill-1" fill="#FFCB00" mask="url(#mask-2)"></path>
                    </g>
                    <path d="M65.1661,50.5342 C65.9551,46.8442 68.7621,47.5022 68.7061,49.0302 C68.6631,50.2272 66.5421,49.8202 65.1661,50.5342" id="Fill-4" fill="#C6F5F5"></path>
                    <path d="M54.6561,50.1343 C52.8561,46.8183 55.4151,45.4923 56.3671,46.6893 C57.1121,47.6263 55.2371,48.6963 54.6561,50.1343" id="Fill-6" fill="#C6F5F5"></path>
                    <path d="M32.0501,37.9347 C34.6711,37.9347 36.8091,35.7967 36.8091,33.1757 C36.8091,30.5547 34.6711,28.4177 32.0501,28.4177 C29.4291,28.4177 27.2911,30.5547 27.2911,33.1757 C27.2911,35.7967 29.4291,37.9347 32.0501,37.9347" id="Fill-8" fill="#1F191A"></path>
                    <path d="M58.7441,37.238 C61.3651,37.238 63.5031,35.1 63.5031,32.479 C63.5031,29.858 61.3651,27.721 58.7441,27.721 C56.1231,27.721 53.9851,29.858 53.9851,32.479 C53.9851,35.1 56.1231,37.238 58.7441,37.238" id="Fill-10" fill="#1F191A"></path>
                    <path d="M66.9367,52.1231 C62.9417,63.8741 38.4357,64.1161 28.3467,59.7621 L22.4837,56.5331 C36.5527,59.9541 55.2367,62.9461 66.9367,52.1231" id="Fill-12" fill="#1F191A"></path>
                    <path d="M52.3856,60.2517 C55.0956,37.2867 70.7806,52.2887 62.7086,56.8137 C59.0096,58.8877 56.7016,60.0857 52.3856,60.2517" id="Fill-14" fill="#FF008F"></path>
                </g>
            </g>
        </g>
    </g>
</svg>