<?xml version="1.0" encoding="UTF-8"?>
<svg width="87px" height="87px" viewBox="0 0 87 87" version="1.1" xmlns="http://www.w3.org/2000/svg" xmlns:xlink="http://www.w3.org/1999/xlink">
    <!-- Generator: Sketch 48.1 (47250) - http://www.bohemiancoding.com/sketch -->
    <title>Page 1 Copy</title>
    <desc>Created with Sketch.</desc>
    <defs>
        <polygon id="path-1" points="0 0.679 86.3208 0.679 86.3208 87 0 87"></polygon>
    </defs>
    <g id="Artboard-Copy" stroke="none" stroke-width="1" fill="none" fill-rule="evenodd" transform="translate(-636.000000, -99.000000)">
        <g id="Group-13-Copy" transform="translate(521.000000, 49.000000)">
            <g id="Page-1-Copy" transform="translate(115.000000, 49.000000)">
                <g id="Group-3" transform="translate(0.000000, 0.321100)">
                    <mask id="mask-2" fill="white">
                        <use xlink:href="#path-1"></use>
                    </mask>
                    <g id="Clip-2"></g>
                    <path d="M43.1608,87 C66.9328,87 86.3208,67.612 86.3208,43.84 C86.3208,20.068 66.9328,0.679 43.1608,0.679 C19.3888,0.679 -0.0002,20.068 -0.0002,43.84 C-0.0002,67.612 19.3888,87 43.1608,87" id="Fill-1" fill="#FFCB00" mask="url(#mask-2)"></path>
                </g>
                <path d="M39.3232,35.5602 C28.4132,35.3282 1.2532,31.8452 1.2532,31.8452 C0.6902,44.9212 26.5172,63.2122 38.2782,43.9172 L39.5802,41.7812 C41.3812,41.7722 44.6092,41.6052 46.5592,41.4832 L48.0432,43.9172 C59.8042,63.2122 85.6312,44.9212 85.0682,31.8452 C85.0682,31.8452 57.9082,35.3282 46.9982,35.5602 L46.2122,35.5732 L43.3582,35.6192 L42.9632,35.6192 L39.3232,35.5602 Z" id="Fill-4" fill="#1F191A"></path>
                <path d="M21.2597,61.3277 C27.7267,67.3227 39.5057,69.9137 48.1867,69.4527 C45.8217,74.4837 22.5427,70.9397 21.2597,61.3277" id="Fill-6" fill="#1F191A"></path>
                <path d="M64.4534,48.1272 C64.6274,47.8382 67.9494,36.6232 67.9494,36.6232 L80.9934,34.7792 C75.5084,48.8842 63.8994,49.0502 64.4534,48.1272" id="Fill-8" fill="#6D6E71"></path>
                <path d="M22.3217,49.52 C22.4957,49.23 26.2107,36.694 26.2107,36.694 L38.3977,37.449 C32.9117,51.554 21.7677,50.443 22.3217,49.52" id="Fill-10" fill="#6D6E71"></path>
                <path d="M27.0691,57.3855 C21.7491,56.0415 19.3041,59.0995 17.5341,62.9755 C18.5341,57.5205 22.2261,54.8605 27.0691,57.3855" id="Fill-12" fill="#1F191A"></path>
            </g>
        </g>
    </g>
</svg>