<?xml version="1.0" encoding="UTF-8"?>
<svg width="87px" height="87px" viewBox="0 0 87 87" version="1.1" xmlns="http://www.w3.org/2000/svg" xmlns:xlink="http://www.w3.org/1999/xlink">
    <!-- Generator: Sketch 48.1 (47250) - http://www.bohemiancoding.com/sketch -->
    <title>Page 1</title>
    <desc>Created with Sketch.</desc>
    <defs>
        <polygon id="path-1" points="0 0.679 86.3208 0.679 86.3208 87 0 87"></polygon>
    </defs>
    <g id="Page-1" stroke="none" stroke-width="1" fill="none" fill-rule="evenodd">
        <g transform="translate(0.000000, -1.000000)">
            <g id="Group-3" transform="translate(0.000000, 0.321400)">
                <mask id="mask-2" fill="white">
                    <use xlink:href="#path-1"></use>
                </mask>
                <g id="Clip-2"></g>
                <path d="M43.1608,87 C66.9328,87 86.3208,67.611 86.3208,43.839 C86.3208,20.067 66.9328,0.679 43.1608,0.679 C19.3888,0.679 -0.0002,20.067 -0.0002,43.839 C-0.0002,67.611 19.3888,87 43.1608,87" id="Fill-1" fill="#FFCB00" mask="url(#mask-2)"></path>
            </g>
            <path d="M24.6432,37.3403 C27.2642,37.3403 29.4022,35.2023 29.4022,32.5813 C29.4022,29.9603 27.2642,27.8223 24.6432,27.8223 C22.0222,27.8223 19.8842,29.9603 19.8842,32.5813 C19.8842,35.2023 22.0222,37.3403 24.6432,37.3403" id="Fill-4" fill="#1F191A"></path>
            <path d="M60.9716,37.3403 C63.5926,37.3403 65.7306,35.2023 65.7306,32.5813 C65.7306,29.9603 63.5926,27.8223 60.9716,27.8223 C58.3506,27.8223 56.2126,29.9603 56.2126,32.5813 C56.2126,35.2023 58.3506,37.3403 60.9716,37.3403" id="Fill-6" fill="#1F191A"></path>
            <path d="M76.2326,41.7659 C74.7276,58.7109 60.4966,71.9969 43.1606,71.9969 C25.8246,71.9969 11.5936,58.7109 10.0886,41.7659 C20.8576,47.4749 65.4886,47.4619 76.2326,41.7659" id="Fill-8" fill="#3E3E3F"></path>
            <path d="M18.4382,45.9868 C16.0712,45.5668 13.9672,45.0738 12.2182,44.5078 C13.1592,49.6508 15.3442,54.3338 18.4382,58.2538 L18.4382,45.9868 Z M30.3932,47.3718 C26.6872,47.1168 23.1832,46.7448 20.0632,46.2568 L20.0632,60.1538 C22.9542,63.2748 26.4672,65.8018 30.3932,67.5478 L30.3932,47.3718 Z M42.3482,47.7938 C38.8522,47.7798 35.3662,47.6738 32.0182,47.4758 L32.0182,68.2158 C35.2502,69.4408 38.7282,70.1498 42.3482,70.2418 L42.3482,47.7938 Z M54.3032,47.4758 C50.9562,47.6738 47.4692,47.7798 43.9732,47.7938 L43.9732,70.2428 C47.5932,70.1508 51.0722,69.4438 54.3032,68.2178 L54.3032,47.4758 Z M66.2582,46.2578 C63.1382,46.7448 59.6332,47.1158 55.9282,47.3718 L55.9282,67.5498 C59.8552,65.8038 63.3672,63.2758 66.2582,60.1548 L66.2582,46.2578 Z M74.1032,44.5078 C72.3552,45.0738 70.2492,45.5668 67.8832,45.9868 L67.8832,58.2538 C70.9762,54.3338 73.1622,49.6508 74.1032,44.5078 Z" id="Fill-10" fill="#FFFFFF"></path>
        </g>
    </g>
</svg>