<?xml version="1.0" encoding="UTF-8"?>
<svg width="92px" height="110px" viewBox="0 0 92 110" version="1.1" xmlns="http://www.w3.org/2000/svg" xmlns:xlink="http://www.w3.org/1999/xlink">
    <!-- Generator: Sketch 47.1 (45422) - http://www.bohemiancoding.com/sketch -->
    <title>Group 6</title>
    <desc>Created with Sketch.</desc>
    <defs></defs>
    <g id="Page-1" stroke="none" stroke-width="1" fill="none" fill-rule="evenodd">
        <g id="linha-3-copy" transform="translate(-165.000000, -24.000000)" fill="#5DA4CF">
            <g id="Group-2" transform="translate(147.000000, 0.000000)">
                <g id="Group-6" transform="translate(18.000000, 24.000000)">
                    <g id="Group-4">
                        <path d="M6.09100888,0.00865072635 C12.0910089,1.00865073 -0.908991119,82.0086507 14.0910089,97.0086507 C29.0910089,112.008651 79.0910089,94.0086507 79.0910089,101.008651 C79.0910089,108.008651 16.0910089,117.008651 6.09100888,101.008651 C-3.90899112,85.0086507 0.0910088808,-0.991349274 6.09100888,0.00865072635 Z" id="Combined-Shape-Copy"></path>
                        <path d="M18.0910089,0.00865072635 C24.0910089,1.00865073 11.0910089,82.0086507 26.0910089,97.0086507 C41.0910089,112.008651 91.0910089,94.0086507 91.0910089,101.008651 C91.0910089,108.008651 28.0910089,117.008651 18.0910089,101.008651 C8.09100888,85.0086507 12.0910089,-0.991349274 18.0910089,0.00865072635 Z" id="Combined-Shape-Copy" transform="translate(51.545504, 54.971049) scale(-1, 1) translate(-51.545504, -54.971049) "></path>
                    </g>
                    <polygon id="Star-3" points="46.4477151 67.25 33.8103322 73.8938654 36.2238576 59.8219327 26 49.8561346 40.1290236 47.8030673 46.4477151 35 52.7664066 47.8030673 66.8954302 49.8561346 56.6715727 59.8219327 59.085098 73.8938654"></polygon>
                </g>
            </g>
        </g>
    </g>
</svg>