<?xml version="1.0" encoding="UTF-8"?>
<svg width="108px" height="136px" viewBox="0 0 108 136" version="1.1" xmlns="http://www.w3.org/2000/svg" xmlns:xlink="http://www.w3.org/1999/xlink">
    <!-- Generator: Sketch 47.1 (45422) - http://www.bohemiancoding.com/sketch -->
    <title>Group 5</title>
    <desc>Created with Sketch.</desc>
    <defs></defs>
    <g id="Page-1" stroke="none" stroke-width="1" fill="none" fill-rule="evenodd">
        <g id="linha-2-copy" transform="translate(-11.000000, -12.000000)" fill="#5DA4CF">
            <g id="Group">
                <g id="Group-5" transform="translate(11.000000, 12.000000)">
                    <path d="M101.317315,121.922961 L108,15 L108,130 L108,130 C108,133.313708 105.313708,136 102,136 L13,136 L95.9394516,127.517556 L95.9394516,127.517556 C98.8590982,127.218956 101.134242,124.852122 101.317315,121.922961 Z" id="Combined-Shape"></path>
                    <path d="M86.3332085,100.954271 L93,-2.17426077e-12 L93,109 L93,109 C93,112.313708 90.3137085,115 87,115 L-9.9475983e-14,115 L80.9707454,106.526317 L80.9707454,106.526317 C83.8764262,106.222234 86.1406954,103.86947 86.3332085,100.954271 Z" id="Combined-Shape" transform="translate(46.500000, 57.500000) rotate(-180.000000) translate(-46.500000, -57.500000) "></path>
                </g>
            </g>
        </g>
    </g>
</svg>