<?xml version="1.0" encoding="UTF-8"?>
<svg width="80px" height="76px" viewBox="0 0 80 76" version="1.1" xmlns="http://www.w3.org/2000/svg" xmlns:xlink="http://www.w3.org/1999/xlink">
    <!-- Generator: Sketch 47.1 (45422) - http://www.bohemiancoding.com/sketch -->
    <title>Star 2</title>
    <desc>Created with Sketch.</desc>
    <defs></defs>
    <g id="Page-1" stroke="none" stroke-width="1" fill="none" fill-rule="evenodd">
        <g id="linha-2-copy" transform="translate(-468.000000, -37.000000)" fill="#5DA4CF">
            <g id="Group-2-Copy-2" transform="translate(444.000000, 0.000000)">
                <path d="M64,100 C55.7710065,100 47.5420129,104.326238 39.3130194,112.978714 C44.9991141,102.478714 46.570712,93.3155948 44.0278132,85.4893569 C41.4849143,77.663119 34.8275187,71.1737621 24.0556263,66.0212862 C35.66685,68.2802867 44.8671445,66.9434057 51.6565097,62.0106431 C58.4458749,57.0778805 62.5603717,48.7409995 64,37 C65.7035675,48.9327626 69.8180643,57.2696436 76.3434903,62.0106431 C82.8689163,66.7516426 92.0692108,68.0885237 103.944374,66.0212862 C93.2026597,71.0808826 86.5452641,77.5702395 83.9721868,85.4893569 C81.3991096,93.4084743 82.9707075,102.571593 88.6869806,112.978714 C80.4579871,104.326238 72.2289935,100 64,100 Z" id="Star-2"></path>
            </g>
        </g>
    </g>
</svg>