<?xml version="1.0" encoding="UTF-8"?>
<svg width="49px" height="44px" viewBox="0 0 49 44" version="1.1" xmlns="http://www.w3.org/2000/svg" xmlns:xlink="http://www.w3.org/1999/xlink">
    <!-- Generator: Sketch 47.1 (45422) - http://www.bohemiancoding.com/sketch -->
    <title>Group 3</title>
    <desc>Created with Sketch.</desc>
    <defs></defs>
    <g id="Page-1" stroke="none" stroke-width="1" fill="none" fill-rule="evenodd">
        <g id="linha-4-copy" transform="translate(-40.000000, -57.000000)" fill="#5DA4CF">
            <g id="Group">
                <g id="Group-3" transform="translate(64.500000, 79.000000) rotate(-270.000000) translate(-64.500000, -79.000000) translate(42.000000, 55.000000)">
                    <path d="M6.58028719,-2.90286173e-13 L22,-8.17124146e-13 L22,48 L17.4552872,48 L17.4552872,48 C14.8098767,48 12.4766252,46.2674491 11.7116333,43.7350621 L0.836633343,7.7350621 L0.836633343,7.7350621 C-0.121614995,4.56292967 1.67309266,1.21459449 4.84522509,0.256346153 C5.40790052,0.0863712838 5.99249888,-2.69965994e-13 6.58028719,-2.90434343e-13 Z" id="Rectangle-3"></path>
                    <path d="M24.5787031,-2.48689958e-14 L38.2373866,-2.48689958e-14 L38.2373866,-2.57571742e-14 C41.5510951,-2.63658925e-14 44.2373866,2.6862915 44.2373866,6 C44.2373866,6.51020665 44.17231,7.01832977 44.043732,7.51206912 L34.668732,43.5120691 L34.668732,43.5120691 C33.9804008,46.1552611 31.5937349,48 28.8623866,48 L24.5787031,48 L24.5787031,-2.48689958e-14 Z" id="Rectangle-3-Copy-2"></path>
                </g>
            </g>
        </g>
    </g>
</svg>