<?xml version="1.0" encoding="UTF-8"?>
<svg width="40px" height="36px" viewBox="0 0 40 36" version="1.1" xmlns="http://www.w3.org/2000/svg" xmlns:xlink="http://www.w3.org/1999/xlink">
    <!-- Generator: Sketch 47.1 (45422) - http://www.bohemiancoding.com/sketch -->
    <title>Star 2</title>
    <desc>Created with Sketch.</desc>
    <defs></defs>
    <g id="Page-1" stroke="none" stroke-width="1" fill="none" fill-rule="evenodd">
        <g id="linha-4-copy" transform="translate(-487.000000, -61.000000)" fill="#5DA4CF">
            <g id="Group-2-Copy-2" transform="translate(443.000000, 0.000000)">
                <path d="M64.9404337,97 C48.3193861,97 71.799374,81.7851582 64.9404337,76.8018464 C58.0814934,71.8185345 49.8188055,103.212392 44.7376472,87.574195 C39.656489,71.9359978 62.3997384,84.6070442 64.9358009,76.8018464 C67.4718634,68.9966485 37.7837783,74.6268416 51.4703651,64.6829542 C65.1569519,54.7390668 56.6299099,76.8018464 64.9404337,76.8018464 C73.2509575,76.8018464 63.84786,53.7410847 77.0546931,63.3364106 C90.2615261,72.9317365 62.3415395,68.8032725 64.9404337,76.8018464 C67.5393279,84.8004202 87.6320814,68.9041937 82.4408674,84.8811078 C77.2496533,100.858022 71.5501081,71.9996368 64.9404337,76.8018464 C58.3307593,81.6040559 81.5614813,97 64.9404337,97 Z" id="Star-2"></path>
            </g>
        </g>
    </g>
</svg>