<?xml version="1.0" encoding="UTF-8"?>
<svg width="66px" height="81px" viewBox="0 0 66 81" version="1.1" xmlns="http://www.w3.org/2000/svg" xmlns:xlink="http://www.w3.org/1999/xlink">
    <!-- Generator: Sketch 47.1 (45422) - http://www.bohemiancoding.com/sketch -->
    <title>Group 8</title>
    <desc>Created with Sketch.</desc>
    <defs></defs>
    <g id="Page-1" stroke="none" stroke-width="1" fill="none" fill-rule="evenodd">
        <g id="linha-4-copy" transform="translate(-178.000000, -35.000000)" fill="#5DA4CF">
            <g id="Group-2" transform="translate(147.000000, 0.000000)">
                <g id="Group-8" transform="translate(31.000000, 35.000000)">
                    <g id="Group-4" transform="translate(0.000000, 28.000000)">
                        <path d="M6.02210898,0.0123660057 C10.5571749,0.766442763 -4.59841822,27.3848949 9,39 C22.5984182,50.6151051 59,39.9849574 59,45.2634947 C59,50.542032 11.3818078,57.3287228 3.82336456,45.2634947 C-3.73507865,33.1982666 1.48704305,-0.741710751 6.02210898,0.0123660057 Z" id="Combined-Shape-Copy"></path>
                        <path d="M15.6959267,0.0120951827 C20.2010765,0.765763382 11.7371254,26.694977 23,38 C34.2628746,49.305023 66,40.7166977 66,45.9923751 C66,51.2680525 18.6993599,58.0510663 11.1907768,45.9923751 C3.68219374,33.9336839 11.1907768,-0.741573017 15.6959267,0.0120951827 Z" id="Combined-Shape-Copy" transform="translate(37.000000, 26.362615) scale(-1, 1) translate(-37.000000, -26.362615) "></path>
                    </g>
                    <path d="M33,29.9666734 C29.0857847,29.9666734 25.1715695,32.0244981 21.2573542,36.1401476 C23.9620104,31.1457021 24.709559,26.7871593 23.5,23.0645194 C22.290441,19.3418794 19.1237743,16.2551423 14,13.804308 C19.5857847,14.8332204 23.9620104,14.1973176 27.1286771,11.8965996 C30.2953438,9.59588158 32.2524514,5.63034838 33,0 C33.7475486,5.63034838 35.7046562,9.59588158 38.8713229,11.8965996 C42.0379896,14.1973176 46.4142153,14.8332204 52,13.804308 C46.8762257,16.2551423 43.709559,19.3418794 42.5,23.0645194 C41.290441,26.7871593 42.0379896,31.1457021 44.7426458,36.1401476 C40.8284305,32.0244981 36.9142153,29.9666734 33,29.9666734 Z" id="Star-3"></path>
                </g>
            </g>
        </g>
    </g>
</svg>