<?xml version="1.0" encoding="UTF-8"?>
<svg width="49px" height="50px" viewBox="0 0 49 50" version="1.1" xmlns="http://www.w3.org/2000/svg" xmlns:xlink="http://www.w3.org/1999/xlink">
    <!-- Generator: Sketch 47.1 (45422) - http://www.bohemiancoding.com/sketch -->
    <title>Group 3</title>
    <desc>Created with Sketch.</desc>
    <defs></defs>
    <g id="Page-1" stroke="none" stroke-width="1" fill="none" fill-rule="evenodd">
        <g id="linha-3-copy" transform="translate(-39.000000, -54.000000)" fill="#5DA4CF">
            <g id="Group">
                <g id="Group-3" transform="translate(63.500000, 79.000000) rotate(-270.000000) translate(-63.500000, -79.000000) translate(39.000000, 55.000000)">
                    <path d="M6,0 L17,0 L17,48 L6,48 L6,48 C2.6862915,48 2.18216909e-15,45.3137085 1.77635684e-15,42 L0,6 L0,6 C-4.05812251e-16,2.6862915 2.6862915,6.08718376e-16 6,0 Z" id="Rectangle-3"></path>
                    <rect id="Rectangle-3-Copy" x="20" y="0" width="9" height="48"></rect>
                    <path d="M32,0 L43,0 L43,0 C46.3137085,-6.08718376e-16 49,2.6862915 49,6 L49,42 L49,42 C49,45.3137085 46.3137085,48 43,48 L32,48 L32,0 Z" id="Rectangle-3-Copy-2"></path>
                </g>
            </g>
        </g>
    </g>
</svg>