<?xml version="1.0" encoding="UTF-8"?>
<svg width="82px" height="77px" viewBox="0 0 82 77" version="1.1" xmlns="http://www.w3.org/2000/svg" xmlns:xlink="http://www.w3.org/1999/xlink">
    <!-- Generator: Sketch 47.1 (45422) - http://www.bohemiancoding.com/sketch -->
    <title>Star 2</title>
    <desc>Created with Sketch.</desc>
    <defs></defs>
    <g id="Page-1" stroke="none" stroke-width="1" fill="none" fill-rule="evenodd">
        <g id="linha-3-copy" transform="translate(-466.000000, -37.000000)" fill="#5DA4CF">
            <g id="Group-2-Copy-2" transform="translate(443.000000, 0.000000)">
                <path d="M64,100 C50.9378383,111.119687 42.7088448,115.445925 39.3130194,112.978714 C35.917194,110.511502 37.4887919,101.348383 44.0278132,85.4893569 C29.4574307,76.3749557 22.8000351,69.8855988 24.0556263,66.0212862 C25.3112176,62.1569737 34.511512,60.8200927 51.6565097,62.0106431 C55.7710065,45.336881 59.8855032,37 64,37 C68.1144968,37 72.2289935,45.336881 76.3434903,62.0106431 C93.4573803,60.7243532 102.657675,62.0612343 103.944374,66.0212862 C105.231073,69.9813382 98.573677,76.4706951 83.9721868,85.4893569 C90.3877978,101.438046 91.9593957,110.601165 88.6869806,112.978714 C85.4145655,115.356263 77.1855719,111.030025 64,100 Z" id="Star-2"></path>
            </g>
        </g>
    </g>
</svg>